<?xml version="1.0" standalone="no"?>
<!DOCTYPE svg PUBLIC "-//W3C//DTD SVG 20010904//EN"
 "http://www.w3.org/TR/2001/REC-SVG-20010904/DTD/svg10.dtd">
<svg version="1.0" xmlns="http://www.w3.org/2000/svg"
 width="736.000000pt" height="736.000000pt" viewBox="0 0 736.000000 736.000000"
 preserveAspectRatio="xMidYMid meet">

<g transform="translate(0.000000,736.000000) scale(0.100000,-0.100000)"
fill="#000000" stroke="none">
<path d="M3755 6516 c-93 -29 -210 -128 -275 -234 -28 -47 -33 -50 -83 -56
-172 -23 -438 -92 -577 -150 -46 -20 -87 -36 -91 -36 -4 0 -19 21 -34 46 -39
67 -133 156 -206 197 -368 205 -825 90 -1060 -266 -103 -157 -150 -315 -151
-512 0 -126 20 -212 80 -335 36 -75 61 -110 116 -166 39 -38 97 -85 129 -103
51 -28 58 -35 53 -54 -71 -241 -96 -391 -96 -570 l0 -129 -40 -56 c-100 -139
-133 -427 -74 -644 37 -136 127 -286 252 -419 150 -160 433 -317 707 -395 33
-9 61 -18 63 -19 2 -2 -12 -50 -32 -107 -36 -105 -63 -209 -87 -331 -8 -41
-19 -72 -28 -76 -9 -5 -41 -11 -71 -14 -88 -10 -205 -74 -278 -151 -103 -111
-153 -246 -155 -421 -4 -470 450 -787 907 -634 76 26 168 81 219 132 l39 39
71 -16 c308 -68 798 -75 1142 -15 61 10 124 22 140 27 27 8 35 4 88 -44 119
-107 255 -156 432 -156 220 0 363 57 510 202 71 69 143 199 171 305 56 217 0
440 -145 586 -87 88 -216 149 -312 149 -50 0 -65 16 -79 90 -17 88 -66 273
-91 340 -36 95 -41 88 113 140 162 55 335 138 435 209 201 143 354 336 426
537 81 227 50 544 -69 700 -24 31 -25 40 -28 181 -4 192 -34 354 -102 565 -4
12 5 22 33 36 110 56 223 175 275 289 52 115 72 207 72 328 -1 212 -48 362
-165 535 -129 190 -336 309 -589 339 -262 32 -524 -85 -658 -294 -15 -22 -27
-42 -29 -44 -1 -2 -22 5 -45 16 -117 55 -254 101 -405 135 l-103 23 6 62 c4
33 3 78 0 98 -9 45 -68 112 -121 136 -47 22 -140 24 -200 5z m144 -141 c45
-23 54 -71 25 -127 -19 -37 -42 -61 -106 -113 -69 -54 -62 -83 22 -96 61 -10
90 -32 90 -69 0 -30 -21 -53 -63 -69 -33 -13 -36 -42 -7 -71 24 -24 30 -24 78
-5 97 41 140 142 96 227 l-16 31 39 -7 c552 -100 1040 -433 1333 -911 179
-292 276 -634 268 -950 l-3 -130 43 -54 c54 -68 69 -103 87 -209 45 -257 -29
-479 -230 -690 -220 -232 -549 -376 -1058 -461 -918 -155 -2013 -26 -2501 292
-173 114 -306 257 -381 412 -50 100 -68 182 -68 305 0 165 30 272 100 358 l35
43 3 167 c4 226 35 384 118 612 42 116 82 197 154 309 173 269 345 447 588
607 275 181 529 272 875 315 52 6 100 13 107 15 7 2 26 31 43 64 51 101 129
174 219 206 48 17 76 17 110 -1z m-1833 -251 c9 -36 1 -57 -28 -74 -32 -17
-55 -8 -75 30 -24 47 25 99 74 77 13 -6 26 -21 29 -33z m3049 21 c18 -17 25
-35 25 -61 0 -50 -63 -113 -143 -143 -52 -19 -61 -20 -92 -7 -68 29 -70 91 -3
158 76 76 168 99 213 53z m185 3 c25 -28 26 -52 0 -78 -27 -27 -65 -26 -84 2
-21 30 -20 54 4 78 26 26 54 25 80 -2z m-3416 -59 c34 -40 33 -81 -4 -145 -33
-59 -90 -108 -149 -129 -133 -47 -159 115 -38 232 83 80 147 94 191 42z m394
-290 c18 -6 32 -15 30 -18 -2 -4 -36 -36 -76 -70 -118 -101 -330 -359 -373
-454 -17 -38 -31 -30 -53 34 -28 79 -26 207 3 282 43 109 125 190 234 229 57
21 173 19 235 -3z m3059 -12 c104 -53 184 -150 213 -259 16 -61 9 -189 -15
-245 -9 -24 -21 -43 -25 -43 -4 0 -24 26 -45 58 -106 160 -282 364 -394 455
-20 16 -30 32 -25 37 39 37 215 35 291 -3z m-1448 -3558 c30 -5 56 -11 59 -14
3 -3 -3 -33 -14 -67 -25 -83 -25 -226 -1 -283 22 -50 64 -112 97 -143 37 -35
120 -71 189 -83 50 -9 61 -14 57 -28 -37 -120 -39 -257 -8 -360 13 -40 21 -75
19 -78 -21 -20 -439 -63 -613 -63 -193 0 -589 42 -611 64 -3 3 4 29 15 58 35
94 37 194 6 361 -6 36 -6 37 23 37 16 0 51 8 78 18 127 44 200 116 235 230 29
93 27 132 -17 318 -4 19 1 23 39 29 119 21 341 23 447 4z m-1499 -399 c27 -27
40 -63 40 -110 0 -83 -76 -113 -132 -52 -74 83 15 239 92 162z m2608 -20 c56
-82 -9 -196 -93 -164 -45 18 -61 131 -24 178 17 22 28 26 57 24 29 -2 41 -11
60 -38z m203 7 c49 -37 43 -115 -12 -161 -37 -32 -65 -33 -96 -4 -70 66 32
223 108 165z m-3022 -122 c17 -20 34 -47 37 -62 24 -93 -87 -127 -143 -44 -29
43 -29 88 -1 118 32 34 70 30 107 -12z m486 -30 c48 -47 21 -135 -47 -151 -56
-13 -98 69 -66 129 27 52 75 61 113 22z m2106 -4 c40 -40 41 -100 3 -130 -36
-28 -60 -26 -95 8 -38 38 -40 91 -4 126 32 33 60 31 96 -4z m579 -11 c43 -43
16 -124 -45 -136 -73 -14 -110 82 -51 132 33 29 69 31 96 4z m-2911 -157 c98
-31 160 -120 161 -229 0 -97 -50 -155 -147 -174 -156 -29 -303 73 -303 209 0
62 35 135 80 166 68 47 126 55 209 28z m2646 6 c75 -21 145 -115 145 -196 0
-37 -31 -106 -63 -140 -61 -65 -188 -94 -279 -64 -74 24 -127 119 -112 199 30
156 161 242 309 201z"/>
<path d="M2491 4704 c-177 -47 -318 -166 -404 -340 -109 -219 -116 -450 -22
-651 90 -192 218 -262 478 -263 349 0 599 185 661 492 49 241 -35 494 -215
644 -130 108 -345 159 -498 118z m399 -282 c86 -52 124 -175 81 -267 -72 -154
-281 -167 -365 -22 -34 58 -42 120 -22 175 49 137 185 188 306 114z m-91 -446
c36 -36 32 -92 -9 -129 -26 -23 -39 -28 -64 -23 -63 12 -97 95 -58 142 40 49
87 52 131 10z m-378 -37 c134 -45 161 -227 47 -312 -15 -11 -48 -22 -75 -24
-161 -14 -246 189 -127 301 45 42 98 54 155 35z"/>
<path d="M4570 4697 c-110 -33 -176 -73 -257 -155 -189 -189 -240 -510 -120
-749 89 -176 231 -284 433 -329 99 -21 310 -15 394 12 116 38 196 109 253 227
51 104 62 163 62 317 -1 153 -12 205 -75 335 -133 277 -425 421 -690 342z m51
-252 c47 -17 103 -64 124 -105 52 -103 -3 -251 -111 -296 -85 -36 -194 -3
-248 74 -68 96 -33 257 67 309 70 36 106 40 168 18z m124 -447 c85 -39 62
-172 -29 -172 -47 0 -89 39 -89 83 0 36 26 79 56 91 30 12 32 12 62 -2z m311
-78 c61 -38 93 -120 74 -190 -40 -149 -239 -175 -307 -40 -27 52 -29 96 -8
148 44 104 148 139 241 82z"/>
<path d="M3595 3996 c-111 -48 -111 -187 0 -228 41 -14 42 -20 15 -63 -42 -68
-104 -63 -124 10 -9 32 -17 41 -38 43 -56 7 -64 -94 -12 -149 58 -60 139 -62
203 -4 l38 35 24 -27 c49 -53 115 -66 177 -34 85 44 105 181 26 181 -20 0 -26
-8 -35 -44 -14 -57 -50 -77 -88 -48 -14 10 -34 34 -43 52 l-18 34 49 23 c141
67 76 234 -91 233 -29 -1 -67 -7 -83 -14z"/>
</g>
</svg>
