<?xml version="1.0" standalone="no"?>
<!DOCTYPE svg PUBLIC "-//W3C//DTD SVG 20010904//EN"
 "http://www.w3.org/TR/2001/REC-SVG-20010904/DTD/svg10.dtd">
<svg version="1.0" xmlns="http://www.w3.org/2000/svg"
 width="225.000000pt" height="225.000000pt" viewBox="0 0 225.000000 225.000000"
 preserveAspectRatio="xMidYMid meet">

<g transform="translate(0.000000,225.000000) scale(0.100000,-0.100000)"
fill="#000000" stroke="none">
<path d="M900 1593 c-26 -10 -80 -66 -80 -84 0 -17 3 -17 37 -2 25 10 57 14
94 11 l57 -4 -21 43 c-22 43 -44 52 -87 36z"/>
<path d="M1033 1499 c14 -8 22 -8 30 0 8 8 3 11 -18 11 -26 -1 -28 -2 -12 -11z"/>
<path d="M1340 1488 c-52 -35 -50 -48 7 -48 53 0 147 -39 157 -65 6 -16 36
-21 36 -6 0 5 -9 30 -20 55 -34 80 -114 108 -180 64z"/>
<path d="M666 1484 c-36 -20 -22 -39 18 -24 15 5 38 10 52 10 15 0 24 6 24 15
0 20 -56 19 -94 -1z"/>
<path d="M1580 1316 c0 -7 13 -19 30 -26 16 -7 35 -18 41 -26 15 -18 29 -18
29 0 0 19 -57 66 -81 66 -10 0 -19 -6 -19 -14z"/>
<path d="M683 1235 c7 -42 70 -137 129 -191 156 -146 402 -181 598 -86 62 30
150 102 150 123 0 25 -15 24 -54 -6 -154 -117 -410 -123 -606 -12 -65 36 -161
130 -179 175 -19 45 -45 43 -38 -3z"/>
<path d="M625 1042 c-25 -5 -45 -21 -45 -35 0 -5 8 -3 18 6 24 22 55 21 75 -1
21 -23 21 -42 2 -68 -22 -29 -17 -43 5 -15 11 13 20 33 20 45 0 38 -42 75 -75
68z"/>
<path d="M1698 1031 c13 -3 41 -31 63 -61 23 -32 39 -47 39 -37 0 9 -4 17 -8
17 -4 0 -16 15 -27 33 -27 46 -40 57 -67 56 l-23 -1 23 -7z"/>
<path d="M1645 1019 c-11 -17 1 -21 15 -4 8 9 8 15 2 15 -6 0 -14 -5 -17 -11z"/>
<path d="M553 973 c-7 -2 -13 -10 -13 -16 0 -7 -14 -30 -30 -51 -17 -22 -30
-44 -30 -49 0 -6 12 8 28 29 33 46 64 94 60 93 -2 0 -9 -3 -15 -6z"/>
<path d="M1661 913 c13 -24 28 -43 32 -43 10 0 -23 57 -42 73 -8 7 -3 -7 10
-30z"/>
<path d="M617 860 c-16 -22 -26 -44 -22 -49 3 -6 97 -9 223 -9 126 0 205 4
189 9 -15 4 -109 7 -208 7 -99 -1 -181 1 -184 4 -2 2 7 21 21 41 34 50 16 47
-19 -3z"/>
<path d="M1705 840 c8 -24 4 -24 -217 -20 -102 1 -148 -1 -148 -9 0 -12 312
-16 367 -5 28 5 29 8 19 30 -13 29 -30 32 -21 4z"/>
<path d="M1302 798 c-7 -7 -12 -21 -11 -32 0 -15 2 -17 6 -6 3 8 12 23 21 33
17 19 3 24 -16 5z"/>
<path d="M1032 760 c-1 -20 -7 -41 -14 -48 -9 -9 -9 -12 3 -13 53 -3 79 -15
79 -38 0 -11 5 -23 10 -26 6 -3 10 1 10 10 0 30 -19 52 -49 58 -27 6 -30 11
-34 49 -3 40 -4 40 -5 8z"/>
<path d="M1283 705 c-17 -14 -17 -14 2 -15 11 0 26 4 33 9 11 7 11 9 -1 14 -8
3 -23 -1 -34 -8z"/>
<path d="M838 693 c28 -2 76 -2 105 0 28 2 5 3 -53 3 -58 0 -81 -1 -52 -3z"/>
<path d="M1222 688 c-13 -13 -17 -88 -4 -88 5 0 7 14 4 30 -3 20 2 37 13 50
19 21 7 28 -13 8z"/>
<path d="M1458 693 c12 -2 32 -2 45 0 12 2 2 4 -23 4 -25 0 -35 -2 -22 -4z"/>
<path d="M1090 605 c-10 -12 -45 -15 -179 -17 l-166 -2 180 -6 c99 -3 181 -7
181 -8 1 -1 4 -16 8 -34 3 -17 9 -29 12 -25 3 3 1 22 -6 42 -6 20 -9 42 -6 50
7 19 -8 19 -24 0z"/>
<path d="M1210 564 c-14 -36 -13 -48 10 -76 10 -14 16 -28 12 -32 -3 -4 1 -4
11 0 21 8 22 24 2 24 -19 0 -37 43 -28 67 4 10 14 23 22 30 14 11 14 12 -2 13
-10 0 -22 -11 -27 -26z"/>
<path d="M1338 583 c45 -2 119 -2 165 0 45 1 8 3 -83 3 -91 0 -128 -2 -82 -3z"/>
<path d="M1094 485 c-10 -8 -14 -15 -8 -15 6 0 17 7 24 15 16 19 9 19 -16 0z"/>
<path d="M1030 470 c0 -5 9 -10 21 -10 11 0 17 5 14 10 -3 6 -13 10 -21 10 -8
0 -14 -4 -14 -10z"/>
<path d="M1333 469 c-32 -11 11 -14 132 -9 l120 5 -118 5 c-65 3 -125 2 -134
-1z"/>
<path d="M783 463 c26 -2 68 -2 95 0 26 2 4 3 -48 3 -52 0 -74 -1 -47 -3z"/>
<path d="M940 466 c0 -2 9 -6 20 -9 11 -3 20 -1 20 4 0 5 -9 9 -20 9 -11 0
-20 -2 -20 -4z"/>
<path d="M1158 443 c6 -2 18 -2 25 0 6 3 1 5 -13 5 -14 0 -19 -2 -12 -5z"/>
</g>
</svg>
